<?xml version="1.0" encoding="UTF-8"?>
<!DOCTYPE svg PUBLIC "-//W3C//DTD SVG 1.1//EN" "http://www.w3.org/Graphics/SVG/1.1/DTD/svg11.dtd">
<!-- Creator: CorelDRAW -->
<svg xmlns="http://www.w3.org/2000/svg" xml:space="preserve" width="7.26865in" height="2.51057in" version="1.1" style="shape-rendering:geometricPrecision; text-rendering:geometricPrecision; image-rendering:optimizeQuality; fill-rule:evenodd; clip-rule:evenodd"
viewBox="0 0 7194.75 2485.04"
 xmlns:xlink="http://www.w3.org/1999/xlink"
 xmlns:xodm="http://www.corel.com/coreldraw/odm/2003">
 <defs>
  <style type="text/css">
   <![CDATA[
    .fil0 {fill:#CDAD68}
    .fil1 {fill:#CDAD68;fill-rule:nonzero}
   ]]>
  </style>
 </defs>
 <g id="Layer_x0020_1">
  <metadata id="CorelCorpID_0Corel-Layer"/>
  <g id="_2253415395024">
   <path class="fil0" d="M676.24 9.08l344.01 595.83 -344.01 595.83 275.3 9.08c150.21,-12.51 185.06,-51.82 247.24,-159.52l257.15 -445.39 -257.15 -445.39c-62.18,-107.69 -97.03,-147.01 -247.24,-159.52l-275.3 9.08z"/>
   <path class="fil0" d="M330.48 600.44l429.14 0 -595.61 1026.26 -95.16 -166.05c-69.18,-132.33 -93.33,-288.64 -39.26,-368.04l300.9 -492.17z"/>
   <path class="fil1" d="M1396.6 1290.01l-709.77 0 0 541.59 79.07 0 0 -231.26 630.58 0c85.64,0 155.16,-69.52 155.16,-155.16 0,-85.52 -69.52,-155.17 -155.03,-155.17l0 0zm0 231.26l-630.71 0 0 -152.2 630.58 0c42.05,0 76.1,34.18 76.1,76.1 0,42.04 -34.05,76.1 -75.97,76.1l0 0zm946.58 75.32c69.52,-15.35 121.63,-77.39 121.63,-151.42 0,-85.52 -69.52,-155.17 -155.16,-155.17l-709.64 0 0 541.59 79.06 0 0 -231.26 577.57 0 116.08 231.91 88.48 0 -117.89 -235.51 -0.13 -0.13zm-664.12 -227.52l630.58 0c42.05,0 76.1,34.18 76.1,76.1 0,42.04 -34.05,76.1 -76.1,76.1l-630.58 0 0 -152.2zm1570.97 -78.55l-554.1 0c-103.31,0 -187.41,84.09 -187.41,187.28l0 166c0,103.31 84.09,187.41 187.41,187.41l554.1 0c103.44,0 187.41,-84.1 187.41,-187.41l0 -166c0,-103.18 -83.97,-187.28 -187.41,-187.28zm108.34 353.27c0,59.85 -48.49,108.34 -108.34,108.34l-554.1 0c-59.85,0 -108.34,-48.5 -108.34,-108.34l0 -166c0,-59.72 48.5,-108.34 108.34,-108.34l554.1 0c59.85,0 108.34,48.63 108.34,108.34l0 166z"/>
   <path class="fil1" d="M4193.65 1521.27l-559.64 0c-41.92,0 -75.97,-34.05 -75.97,-76.23 0,-20.25 7.87,-39.34 22.31,-53.65 14.32,-14.32 33.28,-22.19 53.66,-22.19 0,0 0,0 0,0l675.08 0.26 0 -78.93 -675.08 -0.39c0,0 0,0 -0.13,0 -41.27,0 -80.22,16.13 -109.5,45.4 -29.28,29.28 -45.4,68.1 -45.4,109.89 0,85.38 69.52,154.9 154.9,154.9l559.77 0c41.79,0 75.84,34.05 75.84,75.97 0,41.79 -34.05,75.84 -75.84,75.84l-675.08 0 0 79.07 675.08 0c85.39,0 154.91,-69.52 154.91,-154.91 0,-85.52 -69.52,-155.03 -154.91,-155.03l0 0zm995.98 -231.26l0 231.26 -708.35 0 0 -231.26 -79.07 0 0 541.59 79.07 0 0 -231.26 708.35 0 0 231.26 79.07 0 0 -541.59 -79.07 0zm886.61 0.52l-554.09 0c-103.31,0 -187.41,84.09 -187.41,187.28l0 166c0,103.31 84.1,187.41 187.41,187.41l554.09 0c103.44,0 187.41,-84.1 187.41,-187.41l0 -166c0,-103.18 -83.97,-187.28 -187.41,-187.28zm108.34 353.27c0,59.85 -48.49,108.34 -108.34,108.34l-554.09 0c-59.85,0 -108.34,-48.5 -108.34,-108.34l0 -166c0,-59.72 48.49,-108.34 108.34,-108.34l554.09 0c59.85,0 108.34,48.63 108.34,108.34l0 166zm855.13 -353.79l-709.77 0 0 541.59 79.06 0 0 -231.26 630.58 0c85.64,0 155.16,-69.52 155.16,-155.16 0,-85.52 -69.52,-155.17 -155.03,-155.17l0 0zm0 231.26l-630.71 0 0 -152.2 630.58 0c42.05,0 76.1,34.18 76.1,76.1 0,42.04 -34.05,76.1 -75.97,76.1l0 0z"/>
   <path class="fil1" d="M1392.94 2203.34c28.11,0 49.64,6.9 64.58,20.7 14.95,13.8 22.42,34.36 22.42,61.7l0 122.65 -34.88 0 0 -26.83c-6.13,9.45 -14.88,16.67 -26.25,21.65 -11.37,4.98 -24.85,7.47 -40.44,7.47 -22.74,0 -40.95,-5.49 -54.62,-16.48 -13.67,-10.99 -20.51,-25.42 -20.51,-43.31 0,-17.89 6.52,-32.26 19.55,-43.12 13.03,-10.86 33.73,-16.29 62.09,-16.29l58.26 0 0 -7.28c0,-15.85 -4.6,-27.98 -13.8,-36.41 -9.2,-8.43 -22.74,-12.65 -40.63,-12.65 -12.01,0 -23.76,1.98 -35.26,5.94 -11.5,3.96 -21.21,9.26 -29.13,15.91l-15.33 -27.59c10.48,-8.43 23,-14.89 37.56,-19.36 14.56,-4.47 30.02,-6.71 46.37,-6.71zm-8.43 178.98c14.05,0 26.19,-3.13 36.41,-9.39 10.22,-6.26 17.63,-15.14 22.23,-26.64l0 -28.36 -56.72 0c-31.17,0 -46.76,10.48 -46.76,31.43 0,10.22 3.96,18.27 11.88,24.15 7.92,5.88 18.91,8.81 32.96,8.81zm356.44 -258.32l0 284.39 -35.26 0 0 -32.19c-8.18,11.24 -18.53,19.8 -31.05,25.68 -12.52,5.88 -26.32,8.81 -41.39,8.81 -19.67,0 -37.3,-4.35 -52.89,-13.03 -15.58,-8.69 -27.79,-20.89 -36.6,-36.6 -8.81,-15.72 -13.22,-33.79 -13.22,-54.23 0,-20.44 4.41,-38.46 13.22,-54.04 8.81,-15.59 21.02,-27.72 36.6,-36.41 15.59,-8.69 33.22,-13.03 52.89,-13.03 14.57,0 27.98,2.75 40.24,8.24 12.26,5.49 22.49,13.61 30.66,24.34l0 -111.92 36.8 0zm-104.63 254.49c12.78,0 24.4,-3 34.88,-9.01 10.48,-6 18.65,-14.43 24.53,-25.3 5.88,-10.86 8.81,-23.32 8.81,-37.37 0,-14.05 -2.94,-26.51 -8.81,-37.37 -5.88,-10.86 -14.06,-19.23 -24.53,-25.1 -10.48,-5.88 -22.1,-8.81 -34.88,-8.81 -13.03,0 -24.72,2.94 -35.07,8.81 -10.35,5.88 -18.52,14.25 -24.53,25.1 -6.01,10.86 -9.01,23.32 -9.01,37.37 0,14.05 3,26.51 9.01,37.37 6.01,10.86 14.18,19.29 24.53,25.3 10.35,6.01 22.04,9.01 35.07,9.01zm354.14 -173.24l-88.92 203.13 -37.56 0 -88.92 -203.13 38.33 0 69.76 162.89 71.29 -162.89 36.03 0zm212.33 102.71c0,2.81 -0.25,6.52 -0.76,11.11l-164.81 0c2.3,17.89 10.16,32.26 23.57,43.12 13.41,10.86 30.08,16.29 50.01,16.29 24.27,0 43.82,-8.18 58.64,-24.53l20.31 23.76c-9.2,10.73 -20.63,18.91 -34.31,24.53 -13.67,5.62 -28.94,8.43 -45.8,8.43 -21.46,0 -40.5,-4.41 -57.11,-13.22 -16.61,-8.81 -29.45,-21.15 -38.52,-36.99 -9.07,-15.84 -13.6,-33.73 -13.6,-53.66 0,-19.67 4.41,-37.43 13.22,-53.27 8.81,-15.85 20.95,-28.17 36.41,-36.99 15.46,-8.81 32.9,-13.22 52.32,-13.22 19.42,0 36.73,4.41 51.93,13.22 15.2,8.81 27.08,21.14 35.65,36.99 8.56,15.84 12.84,33.98 12.84,54.42zm-100.41 -73.59c-17.63,0 -32.39,5.37 -44.27,16.1 -11.88,10.73 -18.84,24.78 -20.89,42.16l130.31 0c-2.04,-17.12 -9.01,-31.11 -20.89,-41.97 -11.88,-10.86 -26.64,-16.29 -44.27,-16.29zm186.65 4.98c6.39,-11.75 15.84,-20.7 28.36,-26.83 12.52,-6.13 27.72,-9.2 45.61,-9.2l0 35.64c-2.05,-0.25 -4.86,-0.38 -8.43,-0.38 -19.93,0 -35.58,5.94 -46.95,17.82 -11.37,11.88 -17.06,28.81 -17.06,50.79l0 101.18 -36.79 0 0 -203.13 35.26 0 0 34.11zm241.84 157.14c-5.37,4.6 -12.01,8.11 -19.93,10.54 -7.92,2.43 -16.1,3.64 -24.53,3.64 -20.44,0 -36.28,-5.49 -47.53,-16.48 -11.24,-10.99 -16.86,-26.7 -16.86,-47.14l0 -111.53 -34.5 0 0 -30.28 34.5 0 0 -44.46 36.79 0 0 44.46 58.26 0 0 30.28 -58.26 0 0 110c0,10.99 2.75,19.42 8.24,25.3 5.49,5.88 13.35,8.81 23.57,8.81 11.24,0 20.83,-3.2 28.75,-9.58l11.5 26.44zm349.16 16.1l-35.65 -35.65c-23.76,23 -53.66,34.5 -89.69,34.5 -17.88,0 -33.98,-2.94 -48.29,-8.81 -14.31,-5.88 -25.49,-14.12 -33.53,-24.72 -8.05,-10.6 -12.07,-22.68 -12.07,-36.22 0,-16.35 5.05,-30.85 15.14,-43.5 10.09,-12.65 26.76,-25.61 50.01,-38.9 -11.75,-11.75 -20.06,-22.36 -24.91,-31.81 -4.85,-9.45 -7.28,-19.29 -7.28,-29.51 0,-18.14 6.58,-32.71 19.74,-43.69 13.16,-10.99 30.72,-16.48 52.7,-16.48 20.44,0 36.67,4.98 48.67,14.95 12.01,9.96 18.02,23.63 18.02,41.01 0,13.54 -4.41,25.68 -13.22,36.41 -8.81,10.73 -23.44,21.98 -43.88,33.73l66.3 65.92c7.67,-14.56 13.16,-30.79 16.48,-48.67l29.51 9.58c-4.6,23.51 -12.39,43.95 -23.38,61.32l36.03 36.02 -20.7 24.53zm-113.83 -247.98c-12.01,0 -21.4,3 -28.17,9.01 -6.77,6 -10.16,13.86 -10.16,23.57 0,6.9 1.85,13.54 5.56,19.93 3.71,6.39 10.92,15.08 21.66,26.06 17.63,-9.96 29.83,-18.52 36.6,-25.68 6.77,-7.15 10.16,-14.95 10.16,-23.38 0,-8.94 -3.13,-16.09 -9.39,-21.46 -6.26,-5.37 -15.01,-8.05 -26.25,-8.05zm-9.2 216.17c26.57,0 48.42,-8.43 65.54,-25.3l-76.27 -75.89c-18.4,10.22 -31.24,19.74 -38.52,28.55 -7.28,8.82 -10.92,18.72 -10.92,29.71 0,12.77 5.56,23.12 16.67,31.04 11.11,7.92 25.61,11.88 43.5,11.88zm541.56 -177.45c25.55,0 45.8,7.41 60.75,22.23 14.95,14.82 22.42,36.8 22.42,65.92l0 116.9 -36.8 0 0 -112.68c0,-19.68 -4.54,-34.49 -13.6,-44.46 -9.07,-9.97 -22.04,-14.95 -38.9,-14.95 -18.65,0 -33.47,5.81 -44.46,17.44 -10.99,11.62 -16.48,28.3 -16.48,50.01l0 104.63 -36.8 0 0 -112.68c0,-19.68 -4.54,-34.49 -13.6,-44.46 -9.07,-9.97 -22.04,-14.95 -38.9,-14.95 -18.65,0 -33.47,5.81 -44.46,17.44 -10.99,11.62 -16.48,28.3 -16.48,50.01l0 104.63 -36.79 0 0 -203.13 35.26 0 0 30.28c7.41,-10.48 17.12,-18.46 29.13,-23.95 12.01,-5.49 25.68,-8.24 41.01,-8.24 15.84,0 29.89,3.19 42.16,9.58 12.26,6.39 21.72,15.71 28.36,27.98 7.67,-11.75 18.34,-20.95 32.01,-27.59 13.67,-6.64 29.06,-9.96 46.18,-9.96zm224.98 0c28.11,0 49.64,6.9 64.58,20.7 14.95,13.8 22.42,34.36 22.42,61.7l0 122.65 -34.88 0 0 -26.83c-6.13,9.45 -14.88,16.67 -26.25,21.65 -11.37,4.98 -24.85,7.47 -40.44,7.47 -22.74,0 -40.95,-5.49 -54.62,-16.48 -13.67,-10.99 -20.51,-25.42 -20.51,-43.31 0,-17.89 6.52,-32.26 19.55,-43.12 13.03,-10.86 33.73,-16.29 62.09,-16.29l58.26 0 0 -7.28c0,-15.85 -4.6,-27.98 -13.8,-36.41 -9.2,-8.43 -22.74,-12.65 -40.63,-12.65 -12.01,0 -23.76,1.98 -35.26,5.94 -11.5,3.96 -21.21,9.26 -29.13,15.91l-15.33 -27.59c10.48,-8.43 23,-14.89 37.56,-19.36 14.56,-4.47 30.02,-6.71 46.37,-6.71zm-8.43 178.98c14.05,0 26.19,-3.13 36.41,-9.39 10.22,-6.26 17.63,-15.14 22.23,-26.64l0 -28.36 -56.72 0c-31.17,0 -46.76,10.48 -46.76,31.43 0,10.22 3.96,18.27 11.88,24.15 7.92,5.88 18.91,8.81 32.96,8.81zm198.91 -142.96c6.39,-11.75 15.84,-20.7 28.36,-26.83 12.52,-6.13 27.72,-9.2 45.61,-9.2l0 35.64c-2.05,-0.25 -4.86,-0.38 -8.43,-0.38 -19.93,0 -35.58,5.94 -46.95,17.82 -11.37,11.88 -17.06,28.81 -17.06,50.79l0 101.18 -36.79 0 0 -203.13 35.26 0 0 34.11zm198.15 74.35l-42.16 39.09 0 55.57 -36.79 0 0 -284.39 36.79 0 0 182.44 110.77 -101.18 44.46 0 -85.47 83.93 93.9 119.2 -45.22 0 -76.27 -94.67zm332.29 -5.75c0,2.81 -0.25,6.52 -0.76,11.11l-164.81 0c2.3,17.89 10.16,32.26 23.57,43.12 13.41,10.86 30.08,16.29 50.01,16.29 24.27,0 43.82,-8.18 58.64,-24.53l20.31 23.76c-9.2,10.73 -20.63,18.91 -34.31,24.53 -13.67,5.62 -28.94,8.43 -45.8,8.43 -21.46,0 -40.5,-4.41 -57.11,-13.22 -16.61,-8.81 -29.45,-21.15 -38.52,-36.99 -9.07,-15.84 -13.6,-33.73 -13.6,-53.66 0,-19.67 4.41,-37.43 13.22,-53.27 8.81,-15.85 20.95,-28.17 36.41,-36.99 15.46,-8.81 32.9,-13.22 52.32,-13.22 19.42,0 36.73,4.41 51.93,13.22 15.2,8.81 27.08,21.14 35.65,36.99 8.56,15.84 12.84,33.98 12.84,54.42zm-100.41 -73.59c-17.63,0 -32.39,5.37 -44.27,16.1 -11.88,10.73 -18.84,24.78 -20.89,42.16l130.31 0c-2.04,-17.12 -9.01,-31.11 -20.89,-41.97 -11.88,-10.86 -26.64,-16.29 -44.27,-16.29zm265.6 162.12c-5.37,4.6 -12.01,8.11 -19.93,10.54 -7.92,2.43 -16.1,3.64 -24.53,3.64 -20.44,0 -36.28,-5.49 -47.53,-16.48 -11.24,-10.99 -16.86,-26.7 -16.86,-47.14l0 -111.53 -34.5 0 0 -30.28 34.5 0 0 -44.46 36.79 0 0 44.46 58.26 0 0 30.28 -58.26 0 0 110c0,10.99 2.75,19.42 8.24,25.3 5.49,5.88 13.35,8.81 23.57,8.81 11.24,0 20.83,-3.2 28.75,-9.58l11.5 26.44zm44.46 -191.25l36.79 0 0 203.13 -36.79 0 0 -203.13zm18.4 -39.09c-7.15,0 -13.1,-2.3 -17.82,-6.9 -4.73,-4.6 -7.09,-10.22 -7.09,-16.87 0,-6.64 2.36,-12.33 7.09,-17.05 4.73,-4.73 10.67,-7.09 17.82,-7.09 7.15,0 13.09,2.24 17.82,6.71 4.73,4.47 7.09,10.03 7.09,16.67 0,6.9 -2.36,12.71 -7.09,17.44 -4.73,4.73 -10.67,7.09 -17.82,7.09zm197 37.18c25.81,0 46.31,7.47 61.51,22.42 15.2,14.95 22.81,36.86 22.81,65.73l0 116.9 -36.8 0 0 -112.68c0,-19.68 -4.73,-34.49 -14.18,-44.46 -9.45,-9.97 -23,-14.95 -40.63,-14.95 -19.93,0 -35.64,5.81 -47.14,17.44 -11.5,11.62 -17.25,28.3 -17.25,50.01l0 104.63 -36.79 0 0 -203.13 35.26 0 0 30.66c7.41,-10.48 17.44,-18.53 30.09,-24.15 12.65,-5.62 27.02,-8.43 43.12,-8.43zm348 1.92l0 175.54c0,35.52 -8.81,61.77 -26.44,78.76 -17.63,16.99 -43.95,25.49 -78.95,25.49 -19.16,0 -37.43,-2.62 -54.81,-7.86 -17.38,-5.24 -31.43,-12.71 -42.16,-22.42l17.63 -28.36c9.45,8.18 21.14,14.63 35.07,19.36 13.92,4.73 28.3,7.09 43.12,7.09 23.76,0 41.33,-5.62 52.7,-16.87 11.37,-11.24 17.06,-28.36 17.06,-51.36l0 -16.09c-8.69,10.48 -19.36,18.33 -32.01,23.57 -12.65,5.24 -26.38,7.86 -41.2,7.86 -19.42,0 -36.99,-4.15 -52.7,-12.45 -15.72,-8.3 -28.04,-19.93 -36.99,-34.88 -8.94,-14.95 -13.41,-32 -13.41,-51.17 0,-19.16 4.47,-36.22 13.41,-51.16 8.94,-14.95 21.27,-26.51 36.99,-34.69 15.71,-8.18 33.28,-12.26 52.7,-12.26 15.33,0 29.57,2.81 42.73,8.43 13.16,5.62 23.95,13.93 32.38,24.91l0 -31.43 34.88 0zm-105.78 162.5c13.28,0 25.23,-2.81 35.83,-8.43 10.6,-5.62 18.91,-13.48 24.91,-23.57 6.01,-10.09 9.01,-21.53 9.01,-34.31 0,-19.67 -6.52,-35.58 -19.54,-47.71 -13.03,-12.14 -29.77,-18.21 -50.21,-18.21 -20.7,0 -37.56,6.07 -50.59,18.21 -13.03,12.14 -19.54,28.04 -19.54,47.71 0,12.78 3,24.21 9.01,34.31 6.01,10.09 14.31,17.95 24.91,23.57 10.6,5.62 22.68,8.43 36.22,8.43zm352.98 -164.42c28.11,0 49.64,6.9 64.58,20.7 14.95,13.8 22.42,34.36 22.42,61.7l0 122.65 -34.88 0 0 -26.83c-6.13,9.45 -14.88,16.67 -26.25,21.65 -11.37,4.98 -24.85,7.47 -40.44,7.47 -22.74,0 -40.95,-5.49 -54.62,-16.48 -13.67,-10.99 -20.51,-25.42 -20.51,-43.31 0,-17.89 6.52,-32.26 19.55,-43.12 13.03,-10.86 33.73,-16.29 62.09,-16.29l58.26 0 0 -7.28c0,-15.85 -4.6,-27.98 -13.8,-36.41 -9.2,-8.43 -22.74,-12.65 -40.63,-12.65 -12.01,0 -23.76,1.98 -35.26,5.94 -11.5,3.96 -21.21,9.26 -29.13,15.91l-15.33 -27.59c10.48,-8.43 23,-14.89 37.56,-19.36 14.56,-4.47 30.02,-6.71 46.37,-6.71zm-8.43 178.98c14.05,0 26.19,-3.13 36.41,-9.39 10.22,-6.26 17.63,-15.14 22.23,-26.64l0 -28.36 -56.72 0c-31.17,0 -46.76,10.48 -46.76,31.43 0,10.22 3.96,18.27 11.88,24.15 7.92,5.88 18.91,8.81 32.96,8.81zm359.12 -177.07l0 175.54c0,35.52 -8.81,61.77 -26.44,78.76 -17.63,16.99 -43.95,25.49 -78.95,25.49 -19.16,0 -37.43,-2.62 -54.81,-7.86 -17.38,-5.24 -31.43,-12.71 -42.16,-22.42l17.63 -28.36c9.45,8.18 21.14,14.63 35.07,19.36 13.92,4.73 28.3,7.09 43.12,7.09 23.76,0 41.33,-5.62 52.7,-16.87 11.37,-11.24 17.06,-28.36 17.06,-51.36l0 -16.09c-8.69,10.48 -19.36,18.33 -32.01,23.57 -12.65,5.24 -26.38,7.86 -41.2,7.86 -19.42,0 -36.99,-4.15 -52.7,-12.45 -15.72,-8.3 -28.04,-19.93 -36.99,-34.88 -8.94,-14.95 -13.41,-32 -13.41,-51.17 0,-19.16 4.47,-36.22 13.41,-51.16 8.94,-14.95 21.27,-26.51 36.99,-34.69 15.71,-8.18 33.28,-12.26 52.7,-12.26 15.33,0 29.57,2.81 42.73,8.43 13.16,5.62 23.95,13.93 32.38,24.91l0 -31.43 34.88 0zm-105.78 162.5c13.28,0 25.23,-2.81 35.83,-8.43 10.6,-5.62 18.91,-13.48 24.91,-23.57 6.01,-10.09 9.01,-21.53 9.01,-34.31 0,-19.67 -6.52,-35.58 -19.54,-47.71 -13.03,-12.14 -29.77,-18.21 -50.21,-18.21 -20.7,0 -37.56,6.07 -50.59,18.21 -13.03,12.14 -19.54,28.04 -19.54,47.71 0,12.78 3,24.21 9.01,34.31 6.01,10.09 14.31,17.95 24.91,23.57 10.6,5.62 22.68,8.43 36.22,8.43zm359.5 -59.79c0,2.81 -0.25,6.52 -0.76,11.11l-164.81 0c2.3,17.89 10.16,32.26 23.57,43.12 13.41,10.86 30.08,16.29 50.01,16.29 24.27,0 43.82,-8.18 58.64,-24.53l20.31 23.76c-9.2,10.73 -20.63,18.91 -34.31,24.53 -13.67,5.62 -28.94,8.43 -45.8,8.43 -21.46,0 -40.5,-4.41 -57.11,-13.22 -16.61,-8.81 -29.45,-21.15 -38.52,-36.99 -9.07,-15.84 -13.6,-33.73 -13.6,-53.66 0,-19.67 4.41,-37.43 13.22,-53.27 8.81,-15.85 20.95,-28.17 36.41,-36.99 15.46,-8.81 32.9,-13.22 52.32,-13.22 19.42,0 36.73,4.41 51.93,13.22 15.2,8.81 27.08,21.14 35.65,36.99 8.56,15.84 12.84,33.98 12.84,54.42zm-100.41 -73.59c-17.63,0 -32.39,5.37 -44.27,16.1 -11.88,10.73 -18.84,24.78 -20.89,42.16l130.31 0c-2.04,-17.12 -9.01,-31.11 -20.89,-41.97 -11.88,-10.86 -26.64,-16.29 -44.27,-16.29zm259.85 -31.04c25.81,0 46.31,7.47 61.51,22.42 15.2,14.95 22.81,36.86 22.81,65.73l0 116.9 -36.8 0 0 -112.68c0,-19.68 -4.73,-34.49 -14.18,-44.46 -9.45,-9.97 -23,-14.95 -40.63,-14.95 -19.93,0 -35.64,5.81 -47.14,17.44 -11.5,11.62 -17.25,28.3 -17.25,50.01l0 104.63 -36.79 0 0 -203.13 35.26 0 0 30.66c7.41,-10.48 17.44,-18.53 30.09,-24.15 12.65,-5.62 27.02,-8.43 43.12,-8.43zm242.22 207.35c-20.7,0 -39.16,-4.47 -55.38,-13.41 -16.22,-8.94 -28.94,-21.27 -38.14,-36.99 -9.2,-15.71 -13.8,-33.54 -13.8,-53.47 0,-19.93 4.6,-37.75 13.8,-53.47 9.2,-15.71 21.91,-27.98 38.14,-36.79 16.23,-8.81 34.69,-13.22 55.38,-13.22 18.39,0 34.81,3.7 49.25,11.11 14.43,7.41 25.61,18.14 33.53,32.19l-27.98 18.02c-6.39,-9.71 -14.31,-16.99 -23.76,-21.85 -9.45,-4.86 -19.93,-7.28 -31.43,-7.28 -13.28,0 -25.23,2.94 -35.83,8.81 -10.6,5.88 -18.91,14.25 -24.91,25.1 -6.01,10.86 -9.01,23.32 -9.01,37.37 0,14.31 3,26.89 9.01,37.75 6.01,10.86 14.31,19.23 24.91,25.1 10.6,5.88 22.55,8.81 35.83,8.81 11.5,0 21.98,-2.43 31.43,-7.28 9.45,-4.86 17.38,-12.14 23.76,-21.85l27.98 17.63c-7.92,14.05 -19.1,24.85 -33.53,32.39 -14.44,7.54 -30.86,11.31 -49.25,11.31zm307.38 -205.43l-98.5 223.45c-8.69,20.69 -18.84,35.26 -30.47,43.69 -11.62,8.43 -25.61,12.65 -41.97,12.65 -9.96,0 -19.61,-1.6 -28.94,-4.79 -9.33,-3.2 -17.05,-7.86 -23.19,-13.99l15.72 -27.59c10.48,9.96 22.61,14.94 36.41,14.94 8.94,0 16.42,-2.36 22.42,-7.09 6.01,-4.73 11.43,-12.84 16.29,-24.34l6.52 -14.18 -89.69 -202.75 38.33 0 70.91 162.5 70.14 -162.5 36.03 0z"/>
  </g>
 </g>
</svg>
