<svg width="48" height="28" viewBox="0 0 48 28" fill="none" xmlns="http://www.w3.org/2000/svg">
<path d="M41.6295 12.3555L32.9537 3.60655C32.3169 2.96448 32.3169 1.92432 32.9537 1.28225C33.5913 0.63925 34.6256 0.63925 35.2633 1.28225L46.7225 12.8378C47.3592 13.4799 47.3592 14.5201 46.7225 15.1621L35.2633 26.7178L35.1213 26.5769L35.2633 26.7178C34.6256 27.3607 33.5913 27.3607 32.9537 26.7178C32.3169 26.0757 32.3169 25.0354 32.9537 24.3934L41.6295 15.6444H2.4324C1.52928 15.6444 0.8 14.9066 0.8 14C0.8 13.0934 1.52928 12.3555 2.4324 12.3555H41.6295Z" fill="black" stroke="white" stroke-width="0.4"/>
</svg>
